<?xml version="1.0" standalone="no"?>
<!DOCTYPE svg PUBLIC "-//W3C//DTD SVG 1.1//EN" "http://www.w3.org/Graphics/SVG/1.1/DTD/svg11.dtd" >
<svg xmlns="http://www.w3.org/2000/svg">
<metadata>Generated by IcoMoon</metadata>
<defs>
<font id="Logitail" horiz-adv-x="1024">
<font-face units-per-em="1024" ascent="960" descent="-64" />
<missing-glyph horiz-adv-x="1024" />
<glyph unicode="&#x20;" horiz-adv-x="512" d="" />
<glyph unicode="&#xe02f;" glyph-name="Pricetags" horiz-adv-x="1344" d="M1296 960h-320c-22.112 0-50.368-12.032-65.504-27.84l-42.56-42.88c-6.208-6.272-6.144-16.416 0.128-22.624 6.208-6.208 16.416-6.176 22.624 0.096l42.688 43.072c9.12 9.504 29.44 18.176 42.624 18.176h320c8.8 0 16-7.168 16-16v-321.568c0-13.152-8.672-33.472-18.368-42.784l-450.592-447.104c-6.432-6.112-17.12-5.952-23.36 0.256l-84.736 84.768c-6.24 6.24-16.384 6.24-22.624 0s-6.24-16.384 0-22.624l84.736-84.768c9.408-9.376 21.888-14.112 34.368-14.112 12.224 0 24.48 4.512 33.984 13.568l450.624 447.136c15.936 15.296 27.968 43.552 27.968 65.664v321.568c0 26.464-21.536 48-48 48zM1249.216 800c0 35.296-28.704 64-64 64s-64-28.704-64-64 28.704-64 64-64 64 28.704 64 64zM1153.216 800c0 17.632 14.336 32 32 32s32-14.368 32-32-14.336-32-32-32-32 14.368-32 32zM526.784 832c-22.112 0-50.368-12.032-65.536-27.84l-447.776-452.192c-18.176-18.944-17.92-49.504 0.672-68.096l333.696-333.696c9.12-9.152 21.344-14.176 34.432-14.176 12.672 0 24.64 4.768 33.888 13.632l450.592 447.104c15.968 15.296 28.032 43.552 28.032 65.696v321.568c0 26.464-21.536 48-48 48h-320zM864 784v-321.568c0-13.184-9.888-33.472-19.584-42.784l-450.592-447.104c-6.24-5.92-17.28-5.792-23.328 0.256l-333.728 333.664c-6.24 6.272-6.368 16.96-0.416 23.136l447.808 452.224c9.12 9.504 29.44 18.176 42.624 18.176h320c8.8 0 17.216-7.168 17.216-16zM736 736c-35.296 0-64-28.704-64-64s28.704-64 64-64 64 28.704 64 64-28.704 64-64 64zM736 640c-17.664 0-32 14.368-32 32s14.336 32 32 32 32-14.368 32-32-14.336-32-32-32z" />
<glyph unicode="&#xe030;" glyph-name="Lightbulb" horiz-adv-x="704" d="M352 960c-169.28 0-352-134.592-352-352 0-107.296 42.688-197.568 124.672-265.984 0.864-1.088 1.856-2.016 2.944-2.816 60.832-65.984 63.904-78.528 64.32-107.552 0.192-11.488 0.096-14.88 0-16.736l-0.128-6.688c-0.48-14.464-1.216-38.688 28.768-47.84l259.008-56.992c1.152-0.256 2.304-0.384 3.424-0.384 7.36 0 13.984 5.088 15.616 12.576 1.92 8.64-3.552 17.184-12.192 19.072l-257.76 56.672c-4.96 1.504-5.376 1.632-4.928 15.936l0.096 6.112c0 0 0.32 2.496 0.064 18.752-0.608 40.608-9.44 60.224-73.888 129.888-1.248 1.536-2.752 2.816-4.416 3.776-75.392 64.096-113.6 145.568-113.6 242.208 0 197.664 166.080 320 320 320 157.312 0 320-119.712 320-320 0-127.296-61.696-197.472-112.576-241.632-1.76-0.832-3.328-2.016-4.704-3.488-65.184-70.528-74.016-90.144-74.624-130.752 0-0.96-0.032-2.080 0-3.296l-0.032-1.12c-0.096-2.432-0.448-3.776-0.416-4.288-1.088 0.16-3.744 0.576-3.744 0.576l-134.24 31.584c-8.704 1.984-17.216-3.328-19.232-11.904-2.016-8.608 3.296-17.216 11.904-19.264l132.608-31.104c1.76-0.64 17.696-5.824 31.136 3.616 5.856 4.128 12.672 12.224 13.888 27.712l0.096 1.504c0.032 1.024 0.064 2.080 0.064 3.168 0 0.288 0 0.576-0.032 0.832l0.032 1.472c0.416 28.864 3.424 41.408 64.16 107.392 0.288 0.224 0.608 0.448 0.864 0.704 85.344 71.712 126.848 159.488 126.848 268.288 0 220.32-178.976 352-352 352zM480 16c7.328 0 13.92 5.024 15.584 12.48 1.984 8.608-3.424 17.184-12.064 19.136l-256 58.048c-8.672 1.92-17.184-3.456-19.136-12.064-1.984-8.608 3.424-17.184 12.064-19.136l256-58.048c1.216-0.288 2.4-0.416 3.552-0.416zM243.488 14.272c-8.672 1.92-17.152-3.488-19.136-12.096-1.92-8.64 3.488-17.184 12.128-19.104l208-46.656c1.216-0.288 2.368-0.416 3.52-0.416 7.328 0 13.952 5.056 15.616 12.512 1.92 8.64-3.488 17.184-12.128 19.104l-208 46.656z" />
<glyph unicode="&#xe040;" glyph-name="Profile-male" horiz-adv-x="1152" d="M16-63.456c8.576-2.144 17.344 2.816 19.584 11.328 32.96 122.976 166.912 154.848 246.976 173.92 20.064 4.768 35.904 8.544 46.208 12.992 91.2 39.584 120.928 103.264 129.824 149.728 1.088 5.6-0.928 11.36-5.28 15.136-47.488 40.992-87.552 102.528-112.832 173.312-0.704 2.016-1.824 3.872-3.296 5.472-33.44 36.352-52.64 74.784-52.64 105.408 0 17.888 6.752 29.888 21.952 38.944 4.64 2.784 7.552 7.68 7.776 13.056 7.072 163.008 123.168 291.328 265.568 292.16 0.16 0 3.264-0.224 3.424-0.224 143.104-1.984 258.464-133.056 262.592-298.368 0.128-4.576 2.176-8.864 5.696-11.808 10.016-8.48 14.688-19.232 14.688-33.824 0-25.632-13.664-57.152-38.432-88.704-1.184-1.504-2.080-3.232-2.688-5.056-25.6-81.152-71.552-152.8-126.016-196.64-4.608-3.712-6.784-9.664-5.696-15.456 8.896-46.432 38.624-110.080 129.824-149.728 10.784-4.672 27.52-8.32 48.736-12.896 79.264-17.152 211.904-45.92 244.448-167.424 1.92-7.136 8.384-11.84 15.424-11.84 1.376 0 2.752 0.192 4.16 0.544 8.544 2.304 13.6 11.072 11.328 19.616-37.6 140.384-187.872 172.928-268.576 190.4-18.72 4.064-34.88 7.552-42.752 11.008-59.52 25.856-96.192 65.248-109.152 117.28 55.264 47.456 101.504 120.672 127.936 202.784 28.064 36.48 43.488 74.048 43.488 106.144 0 21.408-6.912 39.264-20.608 53.216-7.616 179.328-135.584 320.544-294.4 322.816l-4.768 0.064c-155.936-0.832-284.448-138.336-295.68-314.56-20.032-14.72-30.208-35.36-30.208-61.568 0-37.856 21.408-83.136 58.88-124.672 25.888-71.136 66.016-133.632 113.792-177.376-12.896-52.224-49.6-91.744-109.248-117.632-7.712-3.36-23.072-7.040-40.864-11.264-81.312-19.328-232.608-55.328-270.496-196.704-2.272-8.544 2.784-17.28 11.328-19.584z" />
<glyph unicode="&#xe041;" glyph-name="Profile-female" horiz-adv-x="1152" d="M711.040 296.768c-5.024 0.768-10.144-1.216-13.6-4.96-3.488-3.712-4.992-8.896-4.032-13.92 8.832-46.4 38.56-110.080 129.824-149.728 10.816-4.672 27.52-8.32 48.704-12.896 79.296-17.152 211.904-45.888 244.48-167.424 1.92-7.136 8.384-11.84 15.456-11.84 1.376 0 2.752 0.192 4.16 0.544 8.544 2.304 13.6 11.072 11.328 19.616-37.664 140.384-187.904 172.928-268.64 190.4-18.688 4.064-34.848 7.552-42.752 11.008-54.848 23.808-90.272 59.136-105.632 105.152 152.384-11.328 221.376 49.376 224.416 52.128 3.776 3.424 5.728 8.512 5.152 13.6s-3.52 9.6-7.968 12.16c-87.936 50.24-87.936 223.84-87.936 289.216 0 182.816-123.136 327.744-280.992 330.016-0.448 0.032-3.872 0.096-4.512 0.096 0 0 0 0-0.032 0-160.16-0.896-290.464-145.984-290.464-323.456 0-65.376 0-239.008-87.936-289.216-4.64-2.656-7.616-7.424-8.032-12.736-0.384-5.312 1.92-10.496 6.112-13.792 4.416-3.424 102.016-78.112 222.112-55.424-16.064-44.096-51.008-78.016-104.256-101.152-7.712-3.36-23.072-7.040-40.864-11.264-81.28-19.328-232.608-55.328-270.496-196.704-2.272-8.576 2.784-17.312 11.328-19.616 8.672-2.144 17.312 2.816 19.616 11.328 32.928 123.008 166.944 154.848 246.976 173.92 20.064 4.768 35.904 8.544 46.208 12.992 91.264 39.648 120.96 103.328 129.824 149.728 1.056 5.536-0.864 11.232-5.088 14.944-4.192 3.744-9.984 5.024-15.424 3.328-86.624-27.264-166.656 10.24-201.632 31.040 83.552 69.952 83.552 230.944 83.552 302.624 0 159.904 116.032 290.656 259.84 291.52 0.16 0 3.264-0.192 3.392-0.192 141.824-2.016 248.768-130.112 248.768-297.984 0-71.712 0-233.056 83.904-303.008-28.896-16.512-94.784-43.232-204.864-30.048z" />
<glyph unicode="&#xe047;" glyph-name="Map-pin" horiz-adv-x="768" d="M384 960c-211.744 0-384-172.608-384-384.704 0-317.664 358.432-622.688 373.696-635.52 2.976-2.528 6.656-3.776 10.304-3.776 3.616 0 7.232 1.216 10.176 3.648 15.264 12.608 373.824 312.384 373.824 635.648 0 212.096-172.256 384.704-384 384.704zM384.064-26.816c-58.912 52.64-352.064 328.288-352.064 602.112 0 194.496 157.92 352.704 352 352.704s352-158.208 352-352.704c0-278.464-292.864-550.176-351.936-602.112zM384 768c-105.888 0-192-86.112-192-192s86.112-192 192-192 192 86.112 192 192-86.112 192-192 192zM384 416c-88.224 0-160 71.776-160 160s71.776 160 160 160 160-71.776 160-160-71.776-160-160-160z" />
<glyph unicode="&#xe049;" glyph-name="Chat" horiz-adv-x="1344" d="M1140.864 511.264c-8.448 2.624-17.408-1.984-20.096-10.4-2.656-8.416 1.984-17.408 10.4-20.096 125.056-39.84 180.832-99.264 180.832-192.768 0-83.168-75.872-147.712-121.056-178.816-4.352-3.008-6.944-7.904-6.944-13.184v-122.336c-23.36 8.704-64.096 28.48-100.032 68.96-3.744 4.192-9.44 6.112-14.976 5.088-9.12-1.76-18.432-4.256-27.872-6.784-16.32-4.384-33.152-8.928-49.12-8.928-82.176 0-139.712 17.664-198.528 60.896-7.168 5.248-17.12 3.68-22.368-3.424-5.248-7.136-3.712-17.12 3.392-22.368 64.864-47.68 127.872-67.104 217.504-67.104 20.192 0 39.136 5.088 57.44 10.016 5.696 1.568 11.36 3.104 16.96 4.416 59.808-63.168 127.456-77.536 130.4-78.112 1.056-0.224 2.112-0.32 3.2-0.32 3.648 0 7.264 1.248 10.112 3.616 3.744 3.040 5.888 7.584 5.888 12.384v135.648c82.624 58.912 128 129.824 128 200.352 0 108.192-64.544 179.136-203.136 223.264zM1056 528c0 246.272-224.576 432-522.336 432-299.264 0-533.664-189.792-533.664-432.064 0-145.248 102.752-249.312 192-312.288v-212.352c0-5.44 2.752-10.464 7.296-13.44 2.656-1.696 5.664-2.56 8.704-2.56 2.208 0 4.448 0.48 6.56 1.408 4.672 2.080 113.888 51.712 207.328 153.888 40.48-7.52 86.272-14.752 127.808-14.752 302.816 0 506.304 160.832 506.304 400.16zM549.664 159.84c-41.92 0-89.568 8.032-130.656 15.872-5.536 0.992-11.232-0.896-14.976-5.088-65.6-73.984-142.688-120.992-180.032-141.248v194.624c0 5.28-2.592 10.176-6.944 13.184-84.416 58.080-185.056 155.616-185.056 290.752 0 224.352 220.352 400.064 501.664 400.064 279.552 0 490.336-171.968 490.336-400 0-220.224-190.624-368.16-474.336-368.16zM528 592c-35.296 0-64-28.704-64-64s28.704-64 64-64 64 28.704 64 64-28.704 64-64 64zM528 496c-17.632 0-32 14.336-32 32s14.368 32 32 32 32-14.336 32-32-14.368-32-32-32zM752 592c-35.296 0-64-28.704-64-64s28.704-64 64-64 64 28.704 64 64-28.704 64-64 64zM752 496c-17.632 0-32 14.336-32 32s14.368 32 32 32 32-14.336 32-32-14.368-32-32-32zM304 588.96c-35.296 0-64-28.704-64-64s28.704-64 64-64 64 28.704 64 64-28.704 64-64 64zM304 492.96c-17.632 0-32 14.336-32 32s14.368 32 32 32 32-14.336 32-32-14.368-32-32-32z" />
<glyph unicode="&#xe05a;" glyph-name="Refresh" d="M852.192 832h155.808c8.832 0 16 7.168 16 16s-7.168 16-16 16h-192c-8.832 0-16-7.168-16-16v-192c0-8.832 7.168-16 16-16s16 7.168 16 16v150.944l19.552-19.552c90.656-90.656 140.608-211.2 140.608-339.392s-49.952-248.736-140.608-339.392c-134.56-134.592-336.128-177.024-513.632-108-8.224 3.264-17.504-0.864-20.704-9.088-3.2-8.256 0.864-17.536 9.12-20.704 60.288-23.424 123.136-34.816 185.504-34.816 133.44 0 264.512 52.16 362.336 150.016 96.704 96.672 149.984 225.28 149.984 362.016s-53.28 265.312-149.984 361.984l-21.984 21.984zM208 256c-8.832 0-16-7.168-16-16v-154.88l-22.816 22.816c-90.656 90.656-140.608 211.2-140.608 339.392s49.952 248.768 140.608 339.424c132.32 132.352 331.232 175.84 506.752 110.592 8.192-3.072 17.472 1.12 20.576 9.44 3.072 8.288-1.152 17.504-9.44 20.576-187.168 69.504-399.36 23.2-540.512-117.984-96.704-96.672-149.984-225.28-149.984-362.016s53.28-265.344 149.984-362.016l21.312-21.344h-151.872c-8.832 0-16-7.168-16-16s7.168-16 16-16h187.392c1.28-0.32 12.032 0.8 15.168 3.936 0.128 0.128 0.16 0.288 0.288 0.416 3.136 2.944 5.152 7.008 5.152 11.648v192c0 8.832-7.168 16-16 16z" />
<glyph unicode="&#xe900;" glyph-name="cart" d="M216.977 878.544l-0.837 3.469-163.869 1.077v-42.223l131.573-0.837 155.496-660.499c-7.892-3.133-14.665-6.707-20.989-10.905l0.415 0.259c-8.024-5.24-14.887-11.418-20.686-18.501l-0.126-0.159c-5.034-7.239-9.496-15.514-12.984-24.283l-0.293-0.836c-3.33-8.261-5.263-17.839-5.263-27.87v0c-0.035-0.883-0.055-1.919-0.055-2.96 0-11.332 2.352-22.115 6.594-31.886l-0.2 0.518c5.076-10.661 11.527-19.79 19.269-27.642l-0.012 0.012c7.736-7.901 16.792-14.472 26.818-19.364l0.574-0.253c10.009-4.566 21.708-7.227 34.030-7.227s24.021 2.661 34.556 7.441l-0.526-0.214c21.057 9.646 37.701 25.904 47.59 46.074l0.255 0.575c4.68 9.938 7.412 21.585 7.412 33.871 0 10.085-1.841 19.74-5.205 28.647l0.185-0.558c-2.424 6.114-5.155 11.351-8.348 16.26l0.214-0.351 215.302-1.316c-3.083-4.643-5.822-9.968-7.95-15.593l-0.184-0.555c-3.368-8.252-5.341-17.825-5.382-27.853v-0.017c-0.010-0.457-0.015-0.995-0.015-1.535 0-11.803 2.606-22.997 7.274-33.039l-0.202 0.484c4.8-10.52 10.982-19.535 18.451-27.303l-0.030 0.032c7.197-8.506 16.204-15.25 26.448-19.677l0.465-0.179c10.122-4.684 21.968-7.417 34.452-7.417 0.125 0 0.249 0 0.374 0.001h-0.019c0.43-0.008 0.936-0.013 1.444-0.013 11.822 0 23.046 2.56 33.148 7.155l-0.502-0.205c10.691 4.993 19.831 11.455 27.63 19.257v0c7.895 7.688 14.247 16.917 18.576 27.206l0.203 0.544c4.009 10.001 6.336 21.593 6.339 33.729v0.002c0.010 0.503 0.016 1.096 0.016 1.691 0 11.567-2.201 22.62-6.207 32.764l0.21-0.605c-4.385 10.855-10.582 20.123-18.303 27.872l0.002-0.002c-7.788 7.877-16.879 14.446-26.927 19.359l-0.584 0.258c-9.835 4.573-21.345 7.257-33.477 7.296h-0.014l-352.138 2.153-13.038 57.653 464.215-2.99 139.827 404.648-700.927 4.426zM350.105 54.296c-5.918 2.756-10.955 6.416-15.17 10.863l-0.021 0.022c-3.681 3.941-6.608 8.639-8.52 13.829l-0.092 0.285c-2.119 5.21-3.349 11.255-3.349 17.586 0 0.041 0 0.082 0 0.123v-0.006c0.075 5.989 1.388 11.653 3.695 16.772l-0.107-0.266c2.617 5.752 5.614 10.703 9.106 15.255l-0.135-0.183c4.393 3.319 9.391 6.243 14.719 8.55l0.472 0.182c5.040 2.239 10.92 3.543 17.105 3.543s12.064-1.304 17.38-3.651l-0.275 0.109c5.453-2.048 10.116-5.058 14.002-8.858l-0.007 0.007c4.329-4.276 7.903-9.304 10.512-14.874l0.133-0.317c2.12-4.679 3.356-10.146 3.356-15.901 0-0.255-0.002-0.509-0.007-0.763l0.001 0.038c-0.037-6.396-1.353-12.476-3.704-18.009l0.116 0.306c-2.19-5.503-5.725-10.076-10.208-13.459l-0.078-0.057-0.957-0.957c-3.49-4.488-8.104-7.947-13.424-9.976l-0.212-0.071c-5.096-2.28-11.044-3.607-17.303-3.607-6.152 0-12.005 1.283-17.305 3.596l0.279-0.108zM358.837 284.191l-76.073 321.876 629.399-4.067-111.718-320.561zM686.574 94.725c0.142 5.84 1.494 11.33 3.813 16.277l-0.105-0.249c2.702 5.879 6.325 10.88 10.742 15.049l0.023 0.022c3.734 3.644 8.134 6.625 12.997 8.743l0.28 0.109c5.031 2.134 10.882 3.375 17.022 3.375 0.534 0 1.065-0.009 1.594-0.028l-0.077 0.002c0.023 0 0.051 0 0.078 0 5.999 0 11.689-1.322 16.795-3.691l-0.247 0.103c5.711-2.634 10.62-5.588 15.162-9.003l-0.21 0.151c3.235-4.296 6.15-9.167 8.528-14.337l0.204-0.495c2.184-4.897 3.46-10.612 3.469-16.623v-0.003c-0.148-6.417-1.497-12.48-3.829-18.028l0.121 0.325c-2.184-5.242-5.172-9.726-8.861-13.527l0.010 0.011c-4.258-4.319-9.292-7.86-14.879-10.399l-0.312-0.127c-5.194-2.219-11.238-3.509-17.583-3.509s-12.389 1.29-17.883 3.622l0.3-0.113c-5.124 2.402-9.383 5.895-12.617 10.201l-0.061 0.085-0.837 0.239c-4.535 3.478-8.034 8.094-10.095 13.425l-0.072 0.211c-2.195 5.373-3.469 11.607-3.469 18.139 0 0.015 0 0.030 0 0.044v-0.002z" />
<glyph unicode="&#xe901;" glyph-name="heart" d="M538.255 6.212l-353.574 353.215c-9.306 8.828-17.612 18.539-24.839 29.050l-0.399 0.614c-8.375 11.243-15.58 24.105-21.015 37.859l-0.395 1.135c-3.947 11.961-7.894 23.922-11.961 39.472-2.904 11.893-4.569 25.547-4.569 39.589 0 2.483 0.052 4.953 0.155 7.411l-0.012-0.351c1.457 30.998 7.211 60.164 16.686 87.594l-0.658-2.191c13.496 28.249 30.516 52.458 50.893 73.382l-0.058-0.059c19.886 19.671 42.941 36.191 68.321 48.716l1.532 0.684c26.147 9.426 56.365 15.568 87.798 17.077l0.715 0.027c0.553 0.006 1.206 0.010 1.859 0.010 23.893 0 46.688-4.705 67.507-13.239l-1.188 0.431c22.039-4.378 41.488-13.239 58.156-25.63l-0.383 0.272c17.433-14.017 33.044-28.34 47.68-43.605l0.165-0.173c5.741-7.655 11.961-14.952 16.506-22.607 5.169 8.559 10.942 15.969 17.481 22.624l-0.017-0.018c12.844 16.601 27.325 31.006 43.456 43.365l0.561 0.413c16.671 11.449 35.796 21.306 56.13 28.631l1.763 0.554c20.317 5.239 43.752 8.482 67.864 8.966l0.315 0.005c27.859-0.718 54.327-5.654 79.12-14.19l-1.85 0.554 8.134-2.392c27.476-12.297 51.134-27.527 72.12-45.752l-0.353 0.3c20.392-20.366 37.445-44.070 50.271-70.223l0.684-1.544c10.98-25.228 17.368-54.617 17.368-85.499 0-1.144-0.009-2.286-0.026-3.426l0.002 0.172c0.090-2.092 0.141-4.547 0.141-7.014 0-14.058-1.665-27.728-4.807-40.822l0.241 1.188c-1.914-7.894-3.947-14.712-5.861-21.53s-3.708-13.038-5.622-20.454c-5.797-15.391-13.137-28.703-22.083-40.752l0.314 0.442c-8.753-12.252-18.105-23.009-28.378-32.809l-0.089-0.084zM346.875 701.279c-27.185-1.565-52.637-6.742-76.614-15.070l1.976 0.597c-21.815-11.376-40.558-25.043-56.983-41.074l0.048 0.047c-16.744-17.066-30.855-36.795-41.625-58.476l-0.598-1.33c-7.117-21.172-11.869-45.665-13.246-71.055l-0.031-0.712c-0.105-2.020-0.164-4.385-0.164-6.765 0-10.831 1.237-21.373 3.577-31.492l-0.183 0.938c3.708-14.712 7.296-25.717 11.004-36.721 4.874-11.599 10.69-21.602 17.598-30.733l-0.255 0.351c6.256-8.947 13.022-16.775 20.503-23.856l0.071-0.066 326.302-325.584 318.168 322.235c8.598 8.39 16.45 17.456 23.501 27.142l0.421 0.608c6.419 8.608 12.072 18.41 16.513 28.852l0.352 0.931c1.555 6.459 3.469 13.397 5.502 20.214s3.708 13.038 5.502 20.454c2.402 9.679 3.781 20.791 3.781 32.225 0 1.581-0.026 3.156-0.079 4.724l0.006-0.228c0.029 1.2 0.045 2.613 0.045 4.030 0 24.745-5.030 48.316-14.122 69.746l0.441-1.171c-11.326 22.663-25.266 42.105-41.788 59.013l0.043-0.044c-17.032 14.703-36.44 27.374-57.418 37.26l-1.551 0.657-5.981 1.555c-19.771 6.985-42.586 11.314-66.322 11.955l-0.302 0.006c-20.564-0.493-40.259-3.125-59.203-7.684l1.909 0.388c-17.511-6.747-32.612-14.795-46.552-24.405l0.741 0.483c-14.511-11.085-27.071-23.645-37.805-37.678l-0.352-0.479c-10.139-10.942-18.48-23.732-24.437-37.778l-0.323-0.857-22.966-46.051-15.789 39.472c-7.832 17.266-17.235 32.147-28.369 45.536l0.261-0.322c-13.003 13.432-26.698 25.952-41.124 37.604l-0.859 0.672c-12.973 9.279-28.393 16.054-45.082 19.261l-0.729 0.117c-16.882 7.631-36.569 12.221-57.291 12.558l-0.123 0.002z" />
<glyph unicode="&#xe902;" glyph-name="Account" d="M778.675 620.062c0 4.426 0 8.612 0 12.918 0.341 1.238 0.536 2.659 0.536 4.127s-0.196 2.889-0.562 4.24l0.026-0.113c-4.485 63.076-32.007 118.977-74.106 159.989l-0.053 0.052c-45.133 46.312-108.119 75.039-177.814 75.039-1.615 0-3.227-0.015-4.836-0.046l0.241 0.004c-1.008 0.015-2.197 0.023-3.388 0.023-69.792 0-132.866-28.765-178.012-75.087l-0.051-0.053c-42.3-41.279-69.854-97.5-74.118-160.116l-0.042-0.763c-0.37-1.254-0.583-2.696-0.583-4.186s0.213-2.932 0.611-4.295l-0.027 0.108c0-3.947-0.598-7.894-0.598-11.961-0.015-1.017-0.024-2.217-0.024-3.42 0-69.745 28.768-132.77 75.084-177.858l0.056-0.054c45.208-46.445 108.328-75.258 178.178-75.258 1.151 0 2.3 0.008 3.448 0.023l-0.174-0.002c1.003-0.015 2.187-0.023 3.373-0.023 69.819 0 132.908 28.815 178.023 75.201l0.056 0.058c46.162 45.074 74.79 107.929 74.79 177.47 0 1.4-0.012 2.797-0.035 4.192l0.003-0.21zM363.382 778.788c39.082 40.605 93.896 65.826 154.602 65.826 1.45 0 2.896-0.014 4.339-0.043l-0.216 0.003c1.257 0.027 2.738 0.042 4.223 0.042 60.675 0 115.458-25.224 154.435-65.758l0.067-0.070c35.176-33.812 58.687-79.532 64.034-130.657l0.078-0.916c-102.508-27.511-175.471 33.611-224.392 74.758-28.348 23.922-48.921 41.027-69.495 36.841-10.842-2.476-19.565-9.861-23.837-19.636l-0.085-0.22c-19.377-38.874-85.164-67.342-126.789-80.977 7.605 47.887 30.291 89.483 62.957 120.734l0.079 0.075zM522.107 396.029c-1.227-0.025-2.674-0.040-4.123-0.040-60.705 0-115.52 25.222-154.536 65.758l-0.066 0.068c-40.605 39.082-65.826 93.896-65.826 154.602 0 1.45 0.014 2.896 0.043 4.339l-0.003-0.216c0 1.316 0 2.631 0 3.947 34.089 10.167 129.301 42.821 158.486 101.192 0.837 1.675 1.435 2.512 1.435 2.751 7.177 0 27.391-17.463 42.103-29.903 42.103-35.884 106.455-89.59 194.25-89.59 18.59 0.071 36.597 2.423 53.801 6.788l-1.531-0.329c-0.115-60.314-25.207-114.744-65.48-153.517l-0.068-0.065c-39.081-40.881-94.047-66.294-154.948-66.294-1.244 0-2.486 0.011-3.724 0.032l0.187-0.003zM682.507 363.494h-320.68c-100.713 0-192.456-83.729-192.456-176.428s91.743-176.308 192.456-176.308h320.68c127.746 0 192.456 59.806 192.456 176.308 0 100.594-82.772 176.428-192.456 176.428zM637.174 331.438l-102.029-178.581-124.995 178.581zM201.427 187.066c0 68.179 68.538 144.372 160.4 144.372h8.971l150.113-213.986v-74.638h-159.084c-91.862 0-160.4 76.193-160.4 144.252zM682.507 42.814h-129.54v76.432l121.167 212.192h8.373c92.939 0 160.4-60.643 160.4-144.372 0-100.235-49.519-144.252-160.4-144.252z" />
<glyph unicode="&#xe903;" glyph-name="Search" d="M440.651 215.414c-1.157-0.018-2.523-0.028-3.891-0.028-76.968 0-146.522 31.746-196.281 82.858l-0.059 0.061c-51.173 49.818-82.919 119.372-82.919 196.34 0 1.368 0.010 2.734 0.030 4.097l-0.002-0.206c-0.017 1.122-0.026 2.446-0.026 3.773 0 76.967 31.745 146.52 82.856 196.279l0.061 0.059c49.847 51.244 119.463 83.036 196.505 83.036 1.31 0 2.618-0.009 3.924-0.028l-0.198 0.002c1.063 0.015 2.319 0.023 3.577 0.023 77.088 0 146.751-31.789 196.595-82.974l0.059-0.061c51.172-49.818 82.917-119.371 82.917-196.338 0-1.327-0.009-2.651-0.028-3.973l0.002 0.2c0.018-1.157 0.028-2.523 0.028-3.891 0-76.968-31.746-146.522-82.858-196.281l-0.061-0.059c-49.856-51.174-119.441-82.917-196.44-82.917-1.333 0-2.664 0.010-3.992 0.028l0.201-0.002zM440.651 739.076c-1.333 0.028-2.904 0.044-4.479 0.044-65.024 0-123.74-27.010-165.54-70.423l-0.069-0.072c-43.555-41.86-70.614-100.606-70.614-165.672 0-1.553 0.015-3.102 0.046-4.648l-0.004 0.232c-0.027-1.319-0.043-2.875-0.043-4.434 0-65.098 27.057-123.877 70.54-165.703l0.074-0.071c41.869-43.485 100.585-70.495 165.61-70.495 1.575 0 3.146 0.016 4.714 0.047l-0.235-0.004c1.333-0.028 2.904-0.044 4.479-0.044 65.024 0 123.74 27.010 165.54 70.423l0.069 0.072c43.836 41.916 71.085 100.863 71.085 166.175 0 1.418-0.013 2.833-0.038 4.245l0.003-0.212c0.029 1.363 0.046 2.969 0.046 4.579 0 64.993-27.012 123.678-70.423 165.438l-0.074 0.071c-41.908 43.493-100.66 70.505-165.721 70.505-1.746 0-3.487-0.019-5.224-0.058l0.258 0.005zM822.334 114.461c-5.78 0.024-11.013 2.348-14.835 6.103l-154.536 151.426c-4.358 3.895-7.088 9.532-7.088 15.807 0 11.693 9.479 21.171 21.171 21.171 6.156 0 11.698-2.627 15.567-6.822l0.013-0.015 154.659-151.19c3.588-3.802 5.794-8.943 5.794-14.6 0-11.567-9.224-20.979-20.717-21.283l-0.028-0.001z" />
<glyph unicode="&#xe904;" glyph-name="Shipping" d="M936.444 483.465c-18.899 61.481-96.527 197.48-181.691 197.48h-124.995v-307.045h-63.514v382.759h-459.909v-420.676h107.651c-20.989-21.93-33.91-51.731-33.91-84.551 0-67.579 54.784-122.363 122.363-122.363s122.363 54.784 122.363 122.363c0 32.819-12.921 62.621-33.953 84.596l0.043-0.045h253.578c-20.989-21.93-33.91-51.731-33.91-84.551 0-67.579 54.784-122.363 122.363-122.363s122.363 54.784 122.363 122.363c0 32.819-12.921 62.621-33.953 84.596l0.043-0.045h115.067zM386.228 252.135c0-46.242-37.487-83.729-83.729-83.729s-83.729 37.487-83.729 83.729c0 46.242 37.487 83.729 83.729 83.729v0c0.071 0 0.155 0 0.239 0 46.242 0 83.729-37.487 83.729-83.729 0 0 0 0 0 0v0zM144.611 373.9v345.32h382.759v-345.32zM816.832 251.657c0-46.242-37.487-83.729-83.729-83.729s-83.729 37.487-83.729 83.729c0 46.242 37.487 83.729 83.729 83.729v0c0 0 0.001 0 0.001 0 46.074 0 83.456-37.214 83.727-83.224v-0.026zM898.048 373.9h-229.895v268.769h86.599c23.922 0 55.261-22.248 85.403-60.883 23.314-29.988 42.853-64.504 56.98-101.687l0.912-2.735z" />
<glyph unicode="&#xe905;" glyph-name="Return" d="M808.818 377.847c-0.016-41.41-8.82-80.759-24.647-116.29l0.725 1.821c-15.872-36.421-37.189-67.548-63.299-93.92l0.024 0.025c-26.482-26.536-57.916-48.118-92.799-63.246l-1.934-0.747c-34.050-14.52-73.662-22.961-115.246-22.961s-81.197 8.441-117.218 23.703l1.971-0.742c-71.102 30.894-126.584 86.609-156.431 155.956l-0.74 1.932c-15.016 33.915-23.757 73.47-23.757 115.067s8.742 81.153 24.489 116.929l-0.731-1.863c16.227 36.584 37.457 67.928 63.265 94.848l-0.11-0.115c26.858 25.708 58.234 46.973 92.773 62.442l2.080 0.833c32.282 14.676 69.959 23.435 109.627 23.921l0.177 0.002v-138.75l269.965 156.333-270.443 155.496v-138.75c-44.833-0.428-87.325-9.98-125.861-26.882l2.062 0.806c-79.609-34.608-141.837-96.758-175.706-174.15l-0.842-2.159c-16.412-38.108-25.957-82.47-25.957-129.062s9.544-90.954 26.785-131.238l-0.828 2.176c17.545-40.751 41.782-75.452 71.676-104.334l0.091-0.087c29.647-29.517 64.81-53.524 103.802-70.335l2.174-0.834c37.988-16.334 82.206-25.832 128.643-25.832s90.654 9.498 130.817 26.657l-2.174-0.826c41.112 17.682 76.23 41.683 105.87 71.183l-0.013-0.013c29.978 28.975 54.213 63.674 70.974 102.365l0.793 2.056c16.335 37.628 25.838 81.454 25.838 127.5 0 0.381-0.001 0.762-0.002 1.142v-0.059 3.828h-35.884zM707.506 692.906l-166.141-97.245v193.054z" />
<glyph unicode="&#xe906;" glyph-name="Timing" d="M197.36 762.64v-629.16h629.16v629.16zM230.373 620.062v109.565h563.134v-109.565zM230.373 166.493v420.556h563.134v-420.556zM438.738 697.332h46.649v-46.649h-46.649v46.649zM538.494 697.332h46.649v-46.649h-46.649v46.649z" />
<glyph unicode="&#xe907;" glyph-name="Marker" d="M511.462 10.16l-42.343 49.041c-13.277 15.071-35.884 44.615-70.691 90.307-28.915 37.635-58.389 80.56-85.614 125.012l-3.736 6.561c-24.695 41.040-48.177 88.901-67.61 138.785l-2.244 6.543c-18.706 42.833-30.365 92.606-32.157 144.884l-0.019 0.684c-0.023 1.368-0.036 2.981-0.036 4.598 0 82.892 34.123 157.813 89.089 211.484l0.058 0.057c53.727 55.021 128.647 89.142 211.536 89.142 1.492 0 2.982-0.011 4.469-0.033l-0.225 0.003c1.412 0.024 3.078 0.038 4.747 0.038 82.845 0 157.72-34.126 211.333-89.089l0.059-0.061c55.023-53.672 89.149-128.547 89.149-211.392 0-1.669-0.014-3.335-0.041-4.998l0.003 0.25c-1.708-52.168-12.979-101.255-32.105-146.194l1.006 2.659c-22.419-57.259-47.37-106.169-76.437-152.22l2.158 3.662c-28.707-45.572-57.294-88.633-85.044-127.985s-52.151-71.767-71.767-95.69zM511.462 846.129c-1.654 0.038-3.603 0.059-5.557 0.059-74.006 0-140.847-30.675-188.502-80.004l-0.072-0.075c-49.411-48.248-80.053-115.528-80.053-189.965 0-1.465 0.012-2.926 0.035-4.385l-0.003 0.22c1.92-48.922 12.777-94.816 30.974-136.788l-0.951 2.463c21.15-54.59 43.979-100.865 70.306-144.804l-2.366 4.26c30.527-49.969 59.56-92.032 90.626-132.452l-2.591 3.51c33.372-44.376 56.696-74.16 69.255-88.513l19.856-23.085 19.377 20.573c18.42 21.65 42.343 53.467 69.614 92.58s55.62 81.576 83.729 126.669c26.191 41.022 50.308 88.289 69.808 137.879l1.96 5.656c16.847 38.979 27.372 84.245 29.048 131.764l0.018 0.646c0.015 1.065 0.024 2.322 0.024 3.582 0 74.55-30.735 141.922-80.226 190.134l-0.058 0.056c-48.248 49.408-115.526 80.048-189.96 80.048-1.34 0-2.678-0.010-4.014-0.030l0.202 0.002zM511.462 453.442c-0.036 0-0.078 0-0.12 0-65.399 0-118.416 53.017-118.416 118.416 0 0.042 0 0.084 0 0.126v-0.007c0 0.071 0 0.155 0 0.239 0 65.399 53.017 118.416 118.416 118.416 0.042 0 0.084 0 0.126 0h-0.007c0.071 0 0.155 0 0.239 0 65.399 0 118.416-53.017 118.416-118.416 0-0.084 0-0.168 0-0.252v0.013c0-0.036 0-0.078 0-0.12 0-65.399-53.017-118.416-118.416-118.416-0.084 0-0.168 0-0.252 0h0.013zM511.462 659.534c0 0 0 0 0 0-48.29 0-87.437-39.147-87.437-87.437 0-0.042 0-0.084 0-0.126v0.006c-0.011-0.5-0.017-1.089-0.017-1.679 0-23.6 9.764-44.919 25.472-60.139l0.022-0.021c15.87-15.78 37.745-25.534 61.899-25.534s46.030 9.754 61.903 25.538l-0.004-0.004c15.808 15.856 25.583 37.736 25.583 61.899s-9.774 46.043-25.585 61.901l0.002-0.002c-15.25 15.796-36.613 25.604-60.266 25.604-0.385 0-0.769-0.003-1.153-0.008l0.058 0.001z" />
<glyph unicode="&#xe908;" glyph-name="Marker-solid" d="M304.772 756.659c51.324 52.872 123.061 85.682 202.462 85.682 1.655 0 3.306-0.014 4.954-0.043l-0.248 0.003c1.405 0.025 3.063 0.040 4.724 0.040 79.433 0 151.203-32.809 202.498-85.614l0.066-0.068c52.733-51.341 85.447-123.018 85.447-202.335 0-1.742-0.016-3.48-0.047-5.214l0.004 0.261c-1.69-50.747-12.699-98.48-31.36-142.163l0.978 2.576c-22.107-56.698-46.863-105.181-75.771-150.771l2.090 3.529q-42.702-68.059-85.523-127.865t-71.767-95.69l-31.338-33.491c-7.775 9.21-18.301 21.291-31.338 35.884s-36.721 45.453-70.81 90.786c-28.844 37.59-58.317 80.514-85.57 124.946l-3.78 6.627c-24.493 40.797-47.776 88.386-67.032 137.984l-2.223 6.508c-18.165 41.591-29.551 89.912-31.437 140.661l-0.021 0.721c-0.031 1.55-0.048 3.378-0.048 5.21 0 79.096 32.572 150.585 85.036 201.783l0.057 0.055zM438.259 475.929c18.894-18.775 44.932-30.38 73.681-30.38s54.787 11.605 73.687 30.385l-0.005-0.005c18.832 18.868 30.478 44.914 30.478 73.681s-11.646 54.813-30.48 73.683l0.002-0.002c-18.841 18.89-44.896 30.577-73.681 30.577-57.472 0-104.063-46.59-104.063-104.063 0-0.069 0-0.138 0-0.206v0.011c-0.007-0.456-0.012-0.993-0.012-1.532 0-28.269 11.633-53.822 30.374-72.13l0.019-0.019z" />
<glyph unicode="&#xe909;" glyph-name="Facebook" d="M879.15 800.078h-668.991c-22.828-0.396-41.229-18.797-41.625-41.588l-0.001-0.037v-668.991c0.396-22.828 18.797-41.229 41.588-41.625l0.037-0.001h361.707v291.256h-99.278v112.077h99.278v83.13c0 95.69 60.763 150.472 147.243 150.472 41.625 0 76.791-3.11 86.36-3.11v-102.508h-60.763c-47.845 0-57.653-22.367-57.653-54.424v-73.561h112.077l-16.028-112.077h-99.278v-291.256h192.097c22.828 0.396 41.229 18.797 41.625 41.588l0.001 0.037v668.991c0.307 1.764 0.483 3.795 0.483 5.867 0 19.818-16.066 35.884-35.884 35.884-1.054 0-2.098-0.045-3.129-0.135l0.134 0.009z" />
<glyph unicode="&#xe90a;" glyph-name="Pintrest" d="M845.778 545.903c0-176.308-96.407-309.317-242.693-309.317-49.878 0-93.178 26.554-109.804 56.577 0 0-26.554-103.106-29.903-123.081-19.975-69.854-76.432-139.707-79.781-146.286-3.349-3.349-10.047-3.349-10.047 3.23 0 10.047-16.626 96.527 0 169.61 10.047 36.601 57.055 246.162 57.055 246.162-8.401 20.628-13.277 44.56-13.277 69.631 0 0.078 0 0.157 0 0.235v-0.012c0 66.504 39.831 116.383 86.48 116.383 39.831 0 59.806-30.023 59.806-66.504 0-39.95-26.554-103.106-39.95-159.682-1.259-4.964-1.981-10.663-1.981-16.531 0-38.645 31.328-69.973 69.973-69.973 0.654 0 1.307 0.009 1.957 0.027l-0.096-0.002c86.48 0 143.535 109.804 143.535 239.224-0.957 99.996-67.222 173.198-186.834 173.198-136.358 0-219.488-103.106-219.488-216.139 0-39.95 9.928-66.504 29.903-86.48 6.698-10.047 10.047-13.277 6.698-26.674-3.349-6.579-6.698-26.554-10.047-36.601-1.371-7.095-7.533-12.38-14.929-12.38-3.077 0-5.941 0.915-8.334 2.488l0.057-0.035c-63.155 26.674-93.178 93.178-93.178 172.959 0 126.31 106.455 279.294 322.953 279.294 168.892 0 281.926-126.31 281.926-259.319z" />
<glyph unicode="&#xe90b;" glyph-name="Linkedin" d="M371.994 790.27c-0.136-56.559-45.949-102.372-102.495-102.508h-0.013c-55.815 0.268-100.958 45.577-100.958 101.43 0 0.379 0.002 0.757 0.006 1.135v-0.058c-0.005 0.36-0.007 0.786-0.007 1.212 0 56.117 44.988 101.727 100.866 102.73l0.094 0.001c56.762-0.875 102.447-47.064 102.508-103.937v-0.006zM186.356 52.024v574.139h166.381v-574.139zM599.257 626.162v-26.674c63.873 32.654 151.549 26.674 213.986-5.981 65.817-39.791 109.571-110.284 111.355-191.125l0.004-0.255v-350.464h-163.39v350.823c0 16.387-14.832 43.060-28.228 47.845-65.308 37.080-133.726-29.783-133.726-29.783v-368.525h-166.381v574.139z" />
<glyph unicode="&#xe90c;" glyph-name="Star-solid" d="M837.644 485.977l-203.341 30.142-90.546 184.92-90.546-184.92-203.341-30.142 147.003-143.176-33.97-203.7 180.973 97.962 184.681-97.962-37.678 203.819 146.764 143.056z" />
<glyph unicode="&#xe90d;" glyph-name="Star" d="M693.751 141.015l-179.418 97.484-183.007-97.125 33.731 202.264-147.003 142.339 202.384 30.023 93.896 183.126 89.709-183.246 202.145-29.903-146.405-142.339zM288.744 463.131l110.761-107.651-25.597-153.821 140.425 74.16 136.238-73.801-26.195 153.104 110.881 107.651-153.582 22.726-68.299 139.587-70.81-139.229z" />
<glyph unicode="&#xe90e;" glyph-name="Check" d="M512.897 62.191c-1.403-0.020-3.060-0.031-4.719-0.031-100.72 0-191.748 41.496-256.92 108.325l-0.072 0.074c-66.978 65.255-108.524 156.333-108.524 257.114 0 1.785 0.013 3.567 0.039 5.346l-0.003-0.269c-0.024 1.545-0.038 3.368-0.038 5.194 0 100.782 41.547 191.86 108.448 257.040l0.077 0.075c65.266 67.048 156.39 108.642 257.228 108.642 1.744 0 3.486-0.012 5.224-0.037l-0.263 0.003c1.335 0.018 2.911 0.028 4.489 0.028 100.836 0 191.957-41.592 257.145-108.556l0.078-0.080c67.047-65.266 108.641-156.389 108.641-257.227 0-1.703-0.012-3.403-0.036-5.101l0.003 0.257c0.024-1.546 0.038-3.37 0.038-5.198 0-100.841-41.596-191.966-108.566-257.154l-0.080-0.078c-65.245-66.907-156.276-108.406-256.999-108.406-1.825 0-3.647 0.014-5.466 0.041l0.275-0.003zM512.897 764.673c-1.804 0.037-3.931 0.058-6.063 0.058-89.701 0-170.706-37.232-228.404-97.086l-0.093-0.097c-59.96-58.388-97.156-139.896-97.156-230.092 0-1.571 0.011-3.139 0.034-4.704l-0.003 0.237c-0.037-1.809-0.058-3.943-0.058-6.081 0-89.733 37.231-170.77 97.088-228.507l0.096-0.092c57.791-59.951 138.795-97.183 228.496-97.183 2.132 0 4.259 0.021 6.381 0.063l-0.318-0.005c1.809-0.037 3.943-0.058 6.081-0.058 89.733 0 170.77 37.231 228.507 97.088l0.092 0.096c59.952 57.828 97.183 138.865 97.183 228.598 0 2.138-0.021 4.271-0.063 6.399l0.005-0.318c0.018 1.269 0.028 2.767 0.028 4.268 0 90.258-37.192 171.83-97.086 230.226l-0.068 0.066c-57.828 59.952-138.865 97.183-228.598 97.183-2.138 0-4.271-0.021-6.399-0.063l0.318 0.005zM666.838 532.984l47.127-47.127-201.068-201.068-200.948 201.068 46.888 47.127 154.061-153.941z" />
<glyph unicode="&#xe90f;" glyph-name="Zoom" d="M434.431 156.445c-1.354-0.021-2.952-0.033-4.554-0.033-87.282 0-166.166 35.956-222.647 93.864l-0.063 0.065c-58.043 56.554-94.047 135.485-94.047 222.825 0 1.561 0.011 3.119 0.034 4.674l-0.003-0.235c-0.020 1.32-0.032 2.878-0.032 4.439 0 87.34 36.004 166.27 93.98 222.76l0.067 0.065c56.544 57.972 135.428 93.929 222.71 93.929 1.601 0 3.199-0.012 4.794-0.036l-0.241 0.003c1.354 0.021 2.952 0.033 4.554 0.033 87.282 0 166.166-35.956 222.647-93.864l0.063-0.065c57.972-56.544 93.929-135.428 93.929-222.71 0-1.601-0.012-3.199-0.036-4.794l0.003 0.241c0.021-1.354 0.033-2.952 0.033-4.554 0-87.282-35.956-166.166-93.864-222.647l-0.065-0.063c-56.544-57.972-135.428-93.929-222.71-93.929-1.601 0-3.199 0.012-4.794 0.036l0.241-0.003zM434.431 749.961c-1.476 0.030-3.216 0.047-4.96 0.047-73.718 0-140.282-30.633-187.656-79.865l-0.080-0.084c-49.316-47.397-79.953-113.915-79.953-187.588 0-1.838 0.019-3.671 0.057-5.5l-0.004 0.273c-0.032-1.526-0.051-3.324-0.051-5.127 0-73.704 30.635-140.253 79.867-187.607l0.084-0.081c47.426-49.245 113.927-79.832 187.573-79.832 1.801 0 3.598 0.018 5.391 0.055l-0.268-0.004c1.544-0.033 3.365-0.052 5.19-0.052 73.662 0 140.18 30.587 187.547 79.752l0.078 0.081c49.317 47.491 79.948 114.087 79.948 187.838 0 1.75-0.017 3.496-0.052 5.238l0.004-0.261c0.031 1.496 0.049 3.26 0.049 5.027 0 73.735-30.633 140.315-79.867 187.709l-0.083 0.079c-47.473 49.316-114.053 79.949-187.788 79.949-1.768 0-3.531-0.018-5.29-0.053l0.263 0.004zM867.069 41.976c-0.006 0-0.012 0-0.019 0-6.572 0-12.524 2.65-16.848 6.939l0.002-0.002-175.112 171.643c-5.369 4.42-8.766 11.068-8.766 18.508 0 13.212 10.71 23.922 23.922 23.922 7.411 0 14.035-3.37 18.423-8.661l0.032-0.040 175.232-170.926c4.407-4.342 7.137-10.374 7.137-17.045s-2.73-12.703-7.134-17.042l-0.003-0.003c-4.279-4.424-10.239-7.2-16.847-7.296h-0.018zM551.651 501.287v-57.175h-84.566v-85.882h-60.404v85.882h-83.729v57.175h83.729v86.24h59.806v-86.24z" />
<glyph unicode="&#xe910;" glyph-name="Arrow-left" d="M604.161 125.585l-223.914 223.794c-14.039 14.1-22.719 33.547-22.719 55.022s8.679 40.921 22.721 55.024l-0.003-0.003 223.914 222.718 34.927-35.046-223.794-222.718c-5.005-5.161-8.090-12.208-8.090-19.975s3.085-14.815 8.097-19.983l223.907-223.787z" />
<glyph unicode="&#xe911;" glyph-name="Arrow-right" d="M415.652 125.585l-35.046 35.046 223.914 222.718c4.958 5.099 8.015 12.069 8.015 19.753 0 0.078 0 0.156-0.001 0.234v-0.012c0.001 0.088 0.002 0.192 0.002 0.296 0 7.682-3.108 14.639-8.136 19.68l-223.793 223.913 35.046 34.927 223.794-223.794c13.982-14.126 22.621-33.565 22.621-55.022s-8.638-40.895-22.627-55.028l0.006 0.007z" />
<glyph unicode="&#xe912;" glyph-name="Iron" d="M811.33 191.85l-44.496 374.386c-0.638 7.9-7.187 14.075-15.187 14.114h-447.114c-8.918 0-16.148-7.23-16.148-16.148s7.23-16.148 16.148-16.148v0 1.914h432.996l15.191-126.43h-378.453c-80.858 0-129.42-30.262-157.768-75.834-28.348-43.539-35.884-101.192-35.884-157.768v-16.267h632.749zM210.398 205.008c2.033 46.529 10.167 91.144 31.338 125.473 23.324 36.482 63.753 60.763 132.53 60.763h381.443l23.205-186.236z" />
<glyph unicode="&#xe913;" glyph-name="Iron-2" d="M877.595 173.43l-81.815 39.233-1.077 10.406-27.032 227.263 109.924 52.51c5.244 2.803 8.751 8.242 8.751 14.499 0 2.233-0.447 4.362-1.256 6.302l0.040-0.108c-2.061 5.644-7.382 9.6-13.628 9.6-2.404 0-4.672-0.586-6.667-1.624l-100.633-47.807-13.636 113.99c-0.574 7.911-7.080 14.125-15.060 14.234h-447.719c-8.364-0.741-14.874-7.714-14.874-16.207s6.509-15.467 14.812-16.203l0.062-0.004v2.033h432.996l13.516-111.957-30.501-14.593h-346.158c-0.364 0.002-0.794 0.003-1.225 0.003-19.315 0-38.13-2.136-56.223-6.185l1.709 0.321-172.959 82.413c-1.727 0.7-3.73 1.106-5.827 1.106-6.32 0-11.779-3.685-14.346-9.024l-0.041-0.095c-1.132-2.103-1.797-4.602-1.797-7.257 0-6.154 3.575-11.473 8.762-13.994l0.092-0.041 143.535-68.538c-24.889-12.766-45.153-31.458-59.44-54.275l-0.366-0.627c-28.228-43.419-35.884-101.072-35.884-157.768v-16.148h17.942l-65.787-31.458c-5.138-2.802-8.566-8.165-8.566-14.329 0-2.483 0.556-4.836 1.551-6.941l-0.042 0.099c2.032-5.697 7.38-9.701 13.664-9.701 2.39 0 4.645 0.579 6.632 1.605l-0.081-0.038 126.909 60.763h481.678l126.909-60.763c1.825-0.791 3.951-1.251 6.184-1.251 6.423 0 11.956 3.806 14.469 9.285l0.041 0.099c1.099 2.059 1.745 4.503 1.745 7.098 0 6.277-3.777 11.671-9.182 14.035l-0.099 0.038zM738.964 421.745l23.324-186.117h-15.789l-212.551 102.388 176.548 83.729zM357.64 421.745h278.457l-139.348-66.026-139.348 66.026zM193.772 236.227c2.033 46.529 10.047 91.025 31.338 125.354 16.933 26.033 42.744 45.070 73.060 52.919l0.861 0.189 160.4-76.671-212.431-101.67zM321.398 236.227l175.351 83.729 175.232-83.729z" />
<glyph unicode="&#xe914;" glyph-name="Wash" d="M820.898 639.32c-0.916 0.169-1.97 0.266-3.047 0.266-8.364 0-15.364-5.84-17.145-13.664l-0.023-0.118-19.975-94.015-8.014 8.851c-15.789 17.942-30.262 34.688-50.476 34.688s-35.884-17.942-50.476-34.688c-10.047-11.244-20.095-22.487-24.64-22.487s-14.593 11.244-25.119 22.487c-15.669 17.942-30.262 34.688-50.476 34.688s-35.884-17.942-50.476-34.688c-10.047-11.244-20.095-22.487-24.64-22.487s-14.593 11.244-24.64 22.487c-15.669 17.942-30.262 34.688-50.476 34.688s-35.884-17.942-50.357-34.688c-10.167-11.244-20.214-22.487-24.76-22.487s-14.473 11.244-24.64 22.487c-15.669 17.942-30.262 34.688-50.357 34.688s-35.884-17.942-50.476-34.688l-8.014-8.851-20.095 94.015c-1.756 7.934-8.731 13.78-17.071 13.78-1.069 0-2.115-0.096-3.131-0.28l0.106 0.016c-8.039-1.837-13.947-8.926-13.947-17.396 0-1.381 0.157-2.725 0.454-4.015l-0.023 0.12 98.68-460.746c1.208-8.301 8.276-14.605 16.817-14.605 0.227 0 0.453 0.004 0.678 0.013l-0.032-0.001h443.761c8.058 0.243 14.754 5.799 16.718 13.272l0.028 0.124 98.68 461.942c0.156 0.916 0.246 1.972 0.246 3.048 0 8.587-5.691 15.845-13.508 18.208l-0.135 0.035zM705.712 177.377h-417.327l-66.983 315.417c9.481 7.607 17.837 15.925 25.236 25.051l0.241 0.307c10.167 11.244 20.214 22.487 24.76 22.487s14.473-11.244 24.64-22.487c15.669-17.822 30.262-34.688 50.357-34.688s35.884 17.942 50.476 34.688c10.047 11.244 20.214 22.487 24.64 22.487s14.593-11.244 24.64-22.487c15.789-17.822 30.381-34.688 50.476-34.688s35.884 17.942 50.476 34.688c10.047 11.244 20.214 22.487 24.64 22.487s14.114-11.244 24.64-22.487c15.669-17.822 30.262-34.688 50.476-34.688s35.884 17.942 50.476 34.688c10.047 11.244 20.095 22.487 24.64 22.487s14.593-11.244 24.64-22.487c7.737-9.394 16.084-17.74 25.165-25.227l0.313-0.25zM577.607 384.785c14.593 0 22.367-19.018 22.367-54.902s-7.775-54.902-22.367-54.902-22.367 17.942-22.367 54.902 8.971 54.902 22.367 54.902zM577.607 413.97c-40.309 0-60.524-36.96-60.524-83.729s17.942-82.891 59.806-82.891 59.806 34.688 59.806 83.729c0.359 43.658-16.506 82.891-59.088 82.891zM415.054 316.486l21.291 35.884c5.622 10.167 10.047 20.214 14.593 30.381 0-10.167-1.077-20.214-1.077-30.381v-35.884zM485.626 249.145v38.156h19.138v27.989h-19.138v95.69h-45.931l-59.806-98.68v-24.64h70.571v-38.156zM666.12 436.338c-3.032 3.221-7.226 5.318-11.909 5.619l-0.053 0.003c-4.73-0.328-8.917-2.42-11.954-5.614l-0.007-0.008c-3.469-3.354-5.622-8.050-5.622-13.248 0-0.052 0-0.104 0.001-0.156v0.008c-0.003-0.134-0.005-0.292-0.005-0.451 0-4.9 1.865-9.364 4.923-12.722l-0.014 0.015c3.053-3.167 7.243-5.22 11.911-5.5l0.050-0.002c4.723 0.257 8.921 2.316 11.955 5.495l0.007 0.007c3.472 3.428 5.622 8.188 5.622 13.449 0 0.023 0 0.047 0 0.070v-0.004c-0.329 4.959-2.121 9.445-4.945 13.093l0.041-0.055zM652.724 453.203c0.109 0.002 0.238 0.003 0.368 0.003 7.893 0 14.978-3.46 19.822-8.945l0.025-0.028c5.529-5.412 8.957-12.951 8.957-21.291s-3.428-15.879-8.952-21.286l-0.005-0.005c-5.072-5.427-12.232-8.846-20.192-8.971h-0.023c-0.125-0.002-0.273-0.003-0.421-0.003-7.877 0-14.945 3.461-19.768 8.945l-0.025 0.029c-5.529 5.412-8.957 12.951-8.957 21.291s3.428 15.879 8.952 21.286l0.005 0.005c5.056 5.449 12.226 8.876 20.197 8.971h0.017z" />
<glyph unicode="&#xe915;" glyph-name="Handwash" d="M820.181 587.886c-0.877 0.173-1.886 0.272-2.917 0.272-7.459 0-13.71-5.172-15.362-12.126l-0.022-0.107-17.942-84.805c-2.392 2.512-4.904 5.143-7.296 7.894-14.234 16.148-27.272 31.338-45.572 31.338h-0.718c0.186 2.291 0.291 4.959 0.291 7.651 0 17.104-4.269 33.211-11.799 47.313l0.264-0.541-7.775 13.636c-1.014 1.851-1.611 4.055-1.611 6.399s0.597 4.548 1.646 6.47l-0.035-0.071 10.287 13.875c3.152 4.83 5.027 10.744 5.027 17.095 0 0.172-0.001 0.343-0.004 0.514v-0.026 2.871c-1.816 6.736-5.51 12.446-10.481 16.708l-0.045 0.037-104.9 76.313c-4.27 3.507-9.791 5.633-15.809 5.633-1.515 0-2.998-0.135-4.438-0.393l0.152 0.023c-7.010-1.392-12.975-5.132-17.18-10.35l-0.044-0.056-26.913-37.319c-1.367-1.975-3.486-3.346-5.933-3.702l-0.047-0.006c-21.765-6.081-39.849-19.233-52.069-36.775l-0.201-0.305-42.582-63.873-69.255-100.115-6.938 7.536c-14.234 16.148-27.272 31.338-45.572 31.338s-32.295-16.148-45.453-31.338l-7.296-7.894-18.061 84.805c-1.627 7.052-7.852 12.231-15.287 12.231-1.023 0-2.024-0.098-2.992-0.285l0.099 0.016c-7.141-1.666-12.38-7.977-12.38-15.512 0-1.286 0.153-2.537 0.441-3.734l-0.022 0.108 88.991-415.772c1.037-7.469 7.381-13.158 15.054-13.158 0.048 0 0.096 0 0.144 0.001h400.455c7.264 0.188 13.32 5.146 15.164 11.848l0.027 0.113 88.991 416.848c0.174 0.913 0.273 1.963 0.273 3.036 0 7.732-5.166 14.257-12.234 16.312l-0.12 0.030zM507.873 641.592c9.057 13.335 22.346 23.208 37.908 27.748l0.488 0.122c8.591 1.67 15.774 6.698 20.261 13.634l0.074 0.121 25.836 35.884c0.837 1.077 2.631 2.392 4.306 1.077l103.823-75.715c0.996-0.951 1.835-2.056 2.479-3.28l0.033-0.069c0-1.435 0-2.273 0-2.392l-10.885-13.636c-3.83-5.73-6.112-12.778-6.112-20.358 0-6.433 1.644-12.483 4.534-17.751l-0.097 0.192 7.894-13.755c5.439-10.032 8.637-21.965 8.637-34.644 0-15.823-4.98-30.483-13.458-42.499l0.156 0.233-80.738-116.981c-1.794-2.512-7.296-1.794-11.961 1.555s-6.339 9.21-5.143 11.004l43.18 62.438-28.707 19.138-122.602-178.461c-1.739-2.596-4.661-4.283-7.976-4.283-2.288 0-4.389 0.803-6.036 2.143l0.017-0.014c-2.097 1.523-3.576 3.785-4.057 6.397l-0.010 0.063c-0.082 0.527-0.129 1.134-0.129 1.752 0 2.569 0.81 4.948 2.188 6.897l-0.025-0.037 89.47 129.899-26.315 18.779-97.723-142.697c-1.386-2.136-3.595-3.638-6.167-4.060l-0.053-0.007c-0.479-0.077-1.031-0.121-1.593-0.121-5.813 0-10.526 4.713-10.526 10.526 0 2.499 0.871 4.795 2.326 6.6l-0.016-0.020 97.604 142.578-26.195 18.779-89.829-130.377c-1.389-2.11-3.532-3.627-6.036-4.175l-0.064-0.012c-0.448-0.069-0.965-0.109-1.491-0.109-2.377 0-4.565 0.806-6.307 2.159l0.023-0.017c-2.593 1.986-4.249 5.084-4.249 8.569 0 2.402 0.787 4.62 2.117 6.411l-0.020-0.029 89.47 130.018-26.195 18.66-68.418-98.8c-1.452-2.12-3.689-3.612-6.283-4.059l-0.057-0.008c-0.411-0.055-0.885-0.086-1.367-0.086-2.357 0-4.539 0.749-6.321 2.022l0.033-0.022c-2.165 1.557-3.665 3.922-4.060 6.645l-0.006 0.054c-0.077 0.51-0.121 1.1-0.121 1.699 0 2.489 0.76 4.801 2.062 6.716l-0.027-0.042zM715.879 170.56h-376.3l-60.524 285.155c8.617 6.861 16.191 14.397 22.868 22.687l0.217 0.278c9.091 10.167 18.181 20.214 22.248 20.214s13.157-10.047 22.248-20.214c4.186-4.665 8.134-9.091 11.961-13.277l-12.679-18.42c-3.821-5.444-6.106-12.208-6.106-19.505 0-2.025 0.176-4.009 0.514-5.938l-0.030 0.205c1.368-9.3 6.445-17.207 13.652-22.298l0.104-0.069c5.373-3.816 12.025-6.164 19.215-6.339l0.043-0.001-5.861-8.612c-3.991-5.626-6.379-12.633-6.379-20.198 0-1.863 0.145-3.693 0.424-5.477l-0.026 0.198c1.416-9.276 6.533-17.142 13.767-22.177l0.108-0.071c5.509-3.986 12.4-6.375 19.85-6.375 0.549 0 1.095 0.013 1.638 0.039l-0.077-0.003c-0.84-2.823-1.323-6.066-1.323-9.423 0-11.397 5.573-21.492 14.142-27.708l0.099-0.068c5.485-3.991 12.356-6.384 19.786-6.384 1.84 0 3.646 0.147 5.407 0.429l-0.194-0.026c4.794 0.877 9.057 2.633 12.808 5.104l-0.129-0.080c4.34-13.962 17.143-23.923 32.273-23.923 0.092 0 0.184 0 0.275 0.001h-0.014c0.169-0.003 0.367-0.005 0.567-0.005 10.92 0 20.605 5.282 26.642 13.431l0.063 0.090 66.983 97.364c2.798-7.13 7.512-13.001 13.512-17.143l0.124-0.081c5.473-4.626 12.609-7.438 20.401-7.438 9.754 0 18.479 4.406 24.294 11.336l0.040 0.049 80.977 117.34 1.077 1.914c7.057 7.536 13.397 13.875 16.506 13.875s13.157-10.047 22.248-20.214c6.954-8.514 14.522-16.044 22.794-22.737l0.291-0.228z" />
</font>
</defs>
</svg>
